<?xml version="1.0" encoding="utf-8"?>
<!-- Generator: Adobe Illustrator 25.2.3, SVG Export Plug-In . SVG Version: 6.00 Build 0)  -->
<svg version="1.1" id="Layer_1" xmlns="http://www.w3.org/2000/svg" xmlns:xlink="http://www.w3.org/1999/xlink" x="0px" y="0px"
	 viewBox="0 0 800 218" style="enable-background:new 0 0 800 218;" xml:space="preserve">
<style type="text/css">
	.st0{fill:#34E834;}
	.st1{fill:#FFFFFF;}
</style>
<g>
	<path class="st0" d="M132.1,54.2v108.1h-23.7V54.2H132.1z"/>
	<path class="st1" d="M24.2,126.6v35.6H0.5v-35.6H24.2z"/>
	<path class="st1" d="M59.8,85.1v77.2H36.1V85.1H59.8z"/>
	<path class="st1" d="M95.4,108.8v53.4H71.7v-53.4H95.4z"/>
	<path class="st0" d="M241.5,121.3c-2.4,26.4-18.7,44.3-48.2,44.3c-31.3,0-52-22.6-52-56.8c0-31.4,20-56.5,52.9-56.5
		c25.9,0,44.7,16.4,46.6,38.7h-23.1c-2.4-11.8-11.2-18.8-23.9-18.8C173,72.3,165,90.9,165,109c0,22.3,11,36.6,28.4,36.6
		c14.2,0,22.7-8.5,24.6-24.3H241.5z"/>
	<path class="st1" d="M263.5,161.8V53.7h33.7l25.1,74.2l24.5-74.2h33v108.1h-22.2V85l-26.5,76.8h-18.3l-26.8-76v76H263.5z"/>
	<path class="st1" d="M462,162.2c0-8.4,0-14.8,0-19.1l0-36c0-21.6-17.9-25.4-33.5-25.5l-0.5,0c-22.5,0-34.9,9-36.1,26.4h20.1
		c1.5-9,5.6-12,15.4-12c9.5,0,14.1,3.3,14.1,10.5c0,6.3-5,7.6-18.5,9.3l-3.4,0.4c-14.8,2-31.2,5.3-31.2,24.5
		c0,14.7,10.6,23.7,27.8,23.7c9.4,0,18.6-3.2,25.2-9.9v7.6H462z M441.3,124.1v8.8c0,11.2-7.9,17.5-19,17.5
		c-7.4,0-11.8-3.9-11.8-10.5c0-9.6,8.3-10.5,15.7-11.7C431.6,127.3,436.3,127,441.3,124.1z"/>
	<path class="st1" d="M490.5,162.2v-48.9c0-5.1,4.1-9.2,9.1-9.2h19.8V83h-19.8c-16.7,0-30.2,13.6-30.2,30.3v48.9H490.5z"/>
	<path class="st1" d="M699.1,53.8V83l23.7,0v21.2l-23.7,0v27.7c0,5.1,4.1,9.2,9.1,9.2h14.6v21.2h-14.6c-16.7,0-30.2-13.6-30.2-30.3
		v-78H699.1z"/>
	<path class="st1" d="M598.1,83.5l-29.3,29l32.8,49.3h-26l-21.5-34.8l-8.8,8.2v26.6h-21V53.7h21v57.8l27.5-28.1H598.1z"/>
	<path class="st1" d="M670.9,137.5h-20.6c-3.2,7.9-8,11.4-15.9,11.4c-11.5,0-18-7.3-18.3-20.8h55.9V126c0-27.5-15-44.8-38.6-44.8
		c-22.7,0-39.2,17.6-39.2,41.9c0,24.6,15.9,41,39.9,41C652,164.1,666,154.5,670.9,137.5z M650.3,114.5h-34.2
		c1.2-10.9,7.9-17.6,17.4-17.6C644.3,96.8,649.4,104.9,650.3,114.5z"/>
	<path class="st1" d="M796.9,106.3h-20c-1.2-8.2-6.2-10.8-14.8-10.8c-7.6,0-12.1,2.9-12.1,7.7c0,5.6,5,7.1,14.3,9l7.3,1.5
		c13.4,2.8,27.8,7.1,27.8,23.8c0,16.4-13.5,26.6-35.7,26.6c-19.5,0-36.3-7.7-36.6-27.8h20.4c0.8,9.4,6.8,13.1,16.6,13.1
		c8.8,0,14.2-3.8,14.2-9.7c0-6.5-6-7.8-16.5-10.2l-1.9-0.4c-13.8-3.1-31.2-5.5-31.2-23.8c0-15.3,12.4-24,34.2-24
		C780.9,81.2,796.3,88,796.9,106.3z"/>
</g>
</svg>
